<svg xmlns="http://www.w3.org/2000/svg" viewBox="0 0 128 128">
  <path fill="#007396" d="M47.617 98.12s-4.767 2.774 3.397 3.71c9.892 1.13 14.947.923 25.845-1.091 0 0 2.871 1.795 6.873 3.351-24.439 10.47-55.308-.607-36.115-5.97z"/>
  <path fill="#007396" d="M44.629 84.455s-5.348 3.959 2.823 4.805c10.567 1.091 18.891 1.057 33.281-1.438 0 0 1.991 2.028 5.132 3.132-29.478 8.64-62.206.568-41.236-6.499z"/>
  <path fill="#34A853" d="M61.213 66.835c6.004 6.923-1.58 13.165-1.58 13.165s15.289-7.891 8.269-17.777c-6.559-9.215-11.587-13.792 15.635-29.58 0 0-42.731 10.67-22.324 34.192z"/>
  <path fill="#007396" d="M86.923 106.71s3.529 2.91-3.888 5.159c-14.102 4.272-58.706 5.56-71.14.171-4.451-1.938 3.899-4.625 6.526-5.192 2.739-.607 4.303-.5 4.303-.5-4.955-3.448-32.047 6.873-13.744 9.815 49.821 8.076 90.817-3.637 77.943-9.453z"/>
  <path fill="#34A853" d="M48.35 72.477c-21.032 18.667 11.703 35.539 31.988 15.214 3.52-3.467-3.066-6.573-3.066-6.573s8.034 6.032 4.303 9.498c-12.304 10.669-36.453 5.593-29.225-8.139z"/>
  <path fill="#007396" d="M74.87 54.358c20.143-20.916-5.328-41.366-30.825-37.65 0 0 5.233 5.378 3.131 12.039-3.535 11.231-1.228 17.796 27.694 25.611z"/>
</svg>